<svg xmlns="http://www.w3.org/2000/svg" width="430" height="930" viewBox="0 0 430 930">
<defs><filter id="shadow" x="-20%" y="-20%" width="140%" height="140%"><feDropShadow dx="0" dy="8" stdDeviation="12" flood-color="#0f172a" flood-opacity="0.16"/></filter></defs>
<rect width="430" height="930" rx="34" fill="#f6f8fb"/>
<rect x="18" y="14" width="394" height="902" rx="30" fill="#ffffff" filter="url(#shadow)"/>
<rect x="18" y="14" width="394" height="84" rx="30" fill="#0f172a"/>
<text x="38" y="51" font-size="22" font-weight="700" font-family="Arial, PingFang SC" fill="#fff">Runweave 终端</text>
<text x="38" y="77" font-size="13" font-family="Arial, PingFang SC" fill="#cbd5e1">方案一：首页 · 项目优先 / 卡片列表</text>
<rect x="34" y="112" width="362" height="44" rx="16" fill="#f1f5f9" stroke="#e2e8f0"/>
<text x="54" y="140" font-size="14" font-family="Arial, PingFang SC" fill="#64748b">搜索项目、终端、codex、typecheck</text>
<rect x="34" y="174" width="107" height="32" rx="16" fill="#2563eb"/>
<text x="87.5" y="195" text-anchor="middle" font-size="12" font-family="Arial, PingFang SC" fill="#fff">run-weave</text>
<rect x="149" y="174" width="98" height="32" rx="16" fill="#f1f5f9"/>
<text x="198.0" y="195" text-anchor="middle" font-size="12" font-family="Arial, PingFang SC" fill="#475569">space-v3</text>
<rect x="255" y="174" width="71" height="32" rx="16" fill="#f1f5f9"/>
<text x="290.5" y="195" text-anchor="middle" font-size="12" font-family="Arial, PingFang SC" fill="#475569">AI运行中</text>
<rect x="334" y="174" width="62" height="32" rx="16" fill="#f1f5f9"/>
<text x="365.0" y="195" text-anchor="middle" font-size="12" font-family="Arial, PingFang SC" fill="#475569">等待输入</text>
<text x="34" y="222" font-size="17" font-weight="700" font-family="Arial, PingFang SC" fill="#0f172a">run-weave · 5 个终端</text>
<text x="396" y="222" text-anchor="end" font-size="12" font-family="Arial, PingFang SC" fill="#64748b">2 个需要处理</text>
<rect x="34" y="240" width="362" height="128" rx="20" fill="#ffffff" stroke="#e2e8f0"/>
<rect x="34" y="240" width="6" height="128" rx="3" fill="#f59e0b"/>
<text x="54" y="268" font-size="16" font-weight="700" font-family="Arial, PingFang SC" fill="#0f172a">cdcbc9cd · Codex</text>
<rect x="316" y="252" width="70" height="26" rx="13" fill="#fef3c7"/>
<text x="351.0" y="270" text-anchor="middle" font-size="12" font-weight="700" font-family="Arial, PingFang SC" fill="#b45309">等待输入</text>
<text x="54" y="294" font-size="12.5" font-family="Arial, PingFang SC" fill="#475569">路径 browser-viewer</text>
<text x="54" y="313" font-size="12.5" font-family="Arial, PingFang SC" fill="#475569">检测到 Codex prompt：› Explain this codebase</text>
<text x="54" y="332" font-size="12.5" font-family="Arial, PingFang SC" fill="#475569">最近输出：3 分钟前</text>
<text x="54" y="351" font-size="12.5" font-family="Arial, PingFang SC" fill="#475569">建议：可以发给 Hermes 继续推进</text>
<rect x="54" y="330" width="137" height="28" rx="14" fill="#2563eb" stroke="#2563eb"/>
<text x="122.5" y="349" text-anchor="middle" font-size="12" font-family="Arial, PingFang SC" fill="#fff">发给 Hermes</text>
<rect x="199" y="330" width="68" height="28" rx="14" fill="#f8fafc" stroke="#cbd5e1"/>
<text x="233.0" y="349" text-anchor="middle" font-size="12" font-family="Arial, PingFang SC" fill="#334155">详情</text>
<rect x="34" y="382" width="362" height="128" rx="20" fill="#ffffff" stroke="#e2e8f0"/>
<rect x="34" y="382" width="6" height="128" rx="3" fill="#f59e0b"/>
<text x="54" y="410" font-size="16" font-weight="700" font-family="Arial, PingFang SC" fill="#0f172a">bd56c286 · Codex</text>
<rect x="316" y="394" width="70" height="26" rx="13" fill="#fef3c7"/>
<text x="351.0" y="412" text-anchor="middle" font-size="12" font-weight="700" font-family="Arial, PingFang SC" fill="#b45309">等待输入</text>
<text x="54" y="436" font-size="12.5" font-family="Arial, PingFang SC" fill="#475569">路径 browser-viewer</text>
<text x="54" y="455" font-size="12.5" font-family="Arial, PingFang SC" fill="#475569">检测到 prompt：› Run /review</text>
<text x="54" y="474" font-size="12.5" font-family="Arial, PingFang SC" fill="#475569">最近输出：8 分钟前</text>
<text x="54" y="493" font-size="12.5" font-family="Arial, PingFang SC" fill="#475569">建议：可总结或继续任务</text>
<rect x="54" y="472" width="137" height="28" rx="14" fill="#2563eb" stroke="#2563eb"/>
<text x="122.5" y="491" text-anchor="middle" font-size="12" font-family="Arial, PingFang SC" fill="#fff">发给 Hermes</text>
<rect x="199" y="472" width="68" height="28" rx="14" fill="#f8fafc" stroke="#cbd5e1"/>
<text x="233.0" y="491" text-anchor="middle" font-size="12" font-family="Arial, PingFang SC" fill="#334155">详情</text>
<rect x="34" y="524" width="362" height="128" rx="20" fill="#ffffff" stroke="#e2e8f0"/>
<rect x="34" y="524" width="6" height="128" rx="3" fill="#22c55e"/>
<text x="54" y="552" font-size="16" font-weight="700" font-family="Arial, PingFang SC" fill="#0f172a">6665c272 · zsh</text>
<rect x="316" y="536" width="70" height="26" rx="13" fill="#dcfce7"/>
<text x="351.0" y="554" text-anchor="middle" font-size="12" font-weight="700" font-family="Arial, PingFang SC" fill="#15803d">空闲</text>
<text x="54" y="578" font-size="12.5" font-family="Arial, PingFang SC" fill="#475569">停在 shell prompt</text>
<text x="54" y="597" font-size="12.5" font-family="Arial, PingFang SC" fill="#475569">当前没有明显任务</text>
<text x="54" y="616" font-size="12.5" font-family="Arial, PingFang SC" fill="#475569">可以直接执行新命令</text>
<rect x="54" y="614" width="68" height="28" rx="14" fill="#f8fafc" stroke="#cbd5e1"/>
<text x="88.0" y="633" text-anchor="middle" font-size="12" font-family="Arial, PingFang SC" fill="#334155">跑命令</text>
<rect x="130" y="614" width="68" height="28" rx="14" fill="#f8fafc" stroke="#cbd5e1"/>
<text x="164.0" y="633" text-anchor="middle" font-size="12" font-family="Arial, PingFang SC" fill="#334155">详情</text>
</svg>