<svg xmlns="http://www.w3.org/2000/svg" width="430" height="930" viewBox="0 0 430 930">
<defs><filter id="shadow" x="-20%" y="-20%" width="140%" height="140%"><feDropShadow dx="0" dy="8" stdDeviation="12" flood-color="#0f172a" flood-opacity="0.16"/></filter></defs>
<rect width="430" height="930" rx="34" fill="#f6f8fb"/>
<rect x="18" y="14" width="394" height="902" rx="30" fill="#ffffff" filter="url(#shadow)"/>
<rect x="18" y="14" width="394" height="84" rx="30" fill="#0f172a"/>
<text x="38" y="51" font-size="22" font-weight="700" font-family="Arial, PingFang SC" fill="#fff">终端卡片结构</text>
<text x="38" y="77" font-size="13" font-family="Arial, PingFang SC" fill="#cbd5e1">每张卡片要回答：是谁、在哪、在干嘛、下一步</text>
<text x="34" y="116" font-size="17" font-weight="700" font-family="Arial, PingFang SC" fill="#0f172a">卡片字段</text>
<rect x="34" y="134" width="362" height="210" rx="20" fill="#ffffff" stroke="#e2e8f0"/>
<rect x="34" y="134" width="6" height="210" rx="3" fill="#f59e0b"/>
<text x="54" y="162" font-size="16" font-weight="700" font-family="Arial, PingFang SC" fill="#0f172a">cdcbc9cd · Codex</text>
<rect x="316" y="146" width="70" height="26" rx="13" fill="#fef3c7"/>
<text x="351.0" y="164" text-anchor="middle" font-size="12" font-weight="700" font-family="Arial, PingFang SC" fill="#b45309">等待输入</text>
<text x="54" y="188" font-size="12.5" font-family="Arial, PingFang SC" fill="#475569">1. 项目 / 路径：run-weave / browser-viewer</text>
<text x="54" y="207" font-size="12.5" font-family="Arial, PingFang SC" fill="#475569">2. 前台程序：codex</text>
<text x="54" y="226" font-size="12.5" font-family="Arial, PingFang SC" fill="#475569">3. 真实状态：等待输入，不只是 running</text>
<text x="54" y="245" font-size="12.5" font-family="Arial, PingFang SC" fill="#475569">4. 判断依据：检测到 prompt + 最近无新增输出</text>
<rect x="54" y="306" width="137" height="28" rx="14" fill="#2563eb" stroke="#2563eb"/>
<text x="122.5" y="325" text-anchor="middle" font-size="12" font-family="Arial, PingFang SC" fill="#fff">发给 Hermes</text>
<rect x="199" y="306" width="85" height="28" rx="14" fill="#f8fafc" stroke="#cbd5e1"/>
<text x="241.5" y="325" text-anchor="middle" font-size="12" font-family="Arial, PingFang SC" fill="#334155">复制上下文</text>
<rect x="292" y="306" width="68" height="28" rx="14" fill="#f8fafc" stroke="#cbd5e1"/>
<text x="326.0" y="325" text-anchor="middle" font-size="12" font-family="Arial, PingFang SC" fill="#334155">详情</text>
<rect x="34" y="358" width="362" height="160" rx="20" fill="#ffffff" stroke="#e2e8f0"/>
<rect x="34" y="358" width="6" height="160" rx="3" fill="#2563eb"/>
<text x="54" y="386" font-size="16" font-weight="700" font-family="Arial, PingFang SC" fill="#0f172a">状态颜色规范</text>
<rect x="298" y="370" width="88" height="26" rx="13" fill="#dbeafe"/>
<text x="342.0" y="388" text-anchor="middle" font-size="12" font-weight="700" font-family="Arial, PingFang SC" fill="#2563eb">Design</text>
<text x="54" y="412" font-size="12.5" font-family="Arial, PingFang SC" fill="#475569">黄色：AI 等待输入，需要用户/Hermes 处理</text>
<text x="54" y="431" font-size="12.5" font-family="Arial, PingFang SC" fill="#475569">蓝色：AI 或命令正在执行，先别打断</text>
<text x="54" y="450" font-size="12.5" font-family="Arial, PingFang SC" fill="#475569">绿色：空闲 shell，可以执行新命令</text>
<text x="54" y="469" font-size="12.5" font-family="Arial, PingFang SC" fill="#475569">红色：失败/卡住，需要先总结再决策</text>
<rect x="54" y="480" width="72" height="28" rx="14" fill="#2563eb" stroke="#2563eb"/>
<text x="90.0" y="499" text-anchor="middle" font-size="12" font-family="Arial, PingFang SC" fill="#fff">确认规范</text>
</svg>