<svg xmlns="http://www.w3.org/2000/svg" width="430" height="930" viewBox="0 0 430 930">
<defs><filter id="shadow" x="-20%" y="-20%" width="140%" height="140%"><feDropShadow dx="0" dy="8" stdDeviation="12" flood-color="#0f172a" flood-opacity="0.16"/></filter></defs>
<rect width="430" height="930" rx="34" fill="#f6f8fb"/>
<rect x="18" y="14" width="394" height="902" rx="30" fill="#ffffff" filter="url(#shadow)"/>
<rect x="18" y="14" width="394" height="84" rx="30" fill="#0f172a"/>
<text x="38" y="51" font-size="22" font-weight="700" font-family="Arial, PingFang SC" fill="#fff">交接预览</text>
<text x="38" y="77" font-size="13" font-family="Arial, PingFang SC" fill="#cbd5e1">点击“发给 Hermes”后先展示将发送的内容</text>
<rect x="34" y="116" width="362" height="105" rx="20" fill="#ffffff" stroke="#e2e8f0"/>
<rect x="34" y="116" width="6" height="105" rx="3" fill="#2563eb"/>
<text x="54" y="144" font-size="16" font-weight="700" font-family="Arial, PingFang SC" fill="#0f172a">交接目标</text>
<rect x="298" y="128" width="88" height="26" rx="13" fill="#dbeafe"/>
<text x="342.0" y="146" text-anchor="middle" font-size="12" font-weight="700" font-family="Arial, PingFang SC" fill="#2563eb">Feishu</text>
<text x="54" y="170" font-size="12.5" font-family="Arial, PingFang SC" fill="#475569">发送到：飞书 Hermes 对话</text>
<text x="54" y="189" font-size="12.5" font-family="Arial, PingFang SC" fill="#475569">动作：复制草稿 或 打开飞书</text>
<text x="54" y="208" font-size="12.5" font-family="Arial, PingFang SC" fill="#475569">包含：终端 ID + 状态 + tail + 操作原则</text>
<rect x="34" y="235" width="362" height="310" rx="22" fill="#f8fafc" stroke="#cbd5e1"/>
<text x="54" y="263" font-size="15" font-weight="700" font-family="Arial, PingFang SC" fill="#0f172a">飞书消息草稿</text>
<text x="54" y="289" font-size="12.3" font-family="Arial, PingFang SC" fill="#334155">Hermes，接管这个 Runweave 终端。</text>
<text x="54" y="307" font-size="12.3" font-family="Arial, PingFang SC" fill="#334155"></text>
<text x="54" y="325" font-size="12.3" font-family="Arial, PingFang SC" fill="#334155">项目：run-weave</text>
<text x="54" y="343" font-size="12.3" font-family="Arial, PingFang SC" fill="#334155">终端：cdcbc9cd-71fd-4555-9436-146451300d56</text>
<text x="54" y="361" font-size="12.3" font-family="Arial, PingFang SC" fill="#334155">状态：Codex · 等待输入</text>
<text x="54" y="379" font-size="12.3" font-family="Arial, PingFang SC" fill="#334155">路径：/Users/.../browser-viewer</text>
<text x="54" y="397" font-size="12.3" font-family="Arial, PingFang SC" fill="#334155"></text>
<text x="54" y="415" font-size="12.3" font-family="Arial, PingFang SC" fill="#334155">请先读取最新状态。若等待输入则继续推进；</text>
<text x="54" y="433" font-size="12.3" font-family="Arial, PingFang SC" fill="#334155">若仍在执行则继续监控；若卡住先总结。</text>
<rect x="34" y="559" width="362" height="110" rx="20" fill="#ffffff" stroke="#e2e8f0"/>
<rect x="34" y="559" width="6" height="110" rx="3" fill="#2563eb"/>
<text x="54" y="587" font-size="16" font-weight="700" font-family="Arial, PingFang SC" fill="#0f172a">确认按钮</text>
<text x="54" y="613" font-size="12.5" font-family="Arial, PingFang SC" fill="#475569">复制后给出 Toast：已复制，去飞书粘贴</text>
<text x="54" y="632" font-size="12.5" font-family="Arial, PingFang SC" fill="#475569">后续可升级：直接调用 Hermes webhook</text>
<rect x="54" y="631" width="111" height="28" rx="14" fill="#2563eb" stroke="#2563eb"/>
<text x="109.5" y="650" text-anchor="middle" font-size="12" font-family="Arial, PingFang SC" fill="#fff">复制并打开飞书</text>
<rect x="173" y="631" width="68" height="28" rx="14" fill="#f8fafc" stroke="#cbd5e1"/>
<text x="207.0" y="650" text-anchor="middle" font-size="12" font-family="Arial, PingFang SC" fill="#334155">仅复制</text>
</svg>