<svg xmlns="http://www.w3.org/2000/svg" width="430" height="930" viewBox="0 0 430 930">
<defs><filter id="shadow" x="-20%" y="-20%" width="140%" height="140%"><feDropShadow dx="0" dy="8" stdDeviation="12" flood-color="#0f172a" flood-opacity="0.16"/></filter></defs>
<rect width="430" height="930" rx="34" fill="#f6f8fb"/>
<rect x="18" y="14" width="394" height="902" rx="30" fill="#ffffff" filter="url(#shadow)"/>
<rect x="18" y="14" width="394" height="84" rx="30" fill="#0f172a"/>
<text x="38" y="51" font-size="22" font-weight="700" font-family="Arial, PingFang SC" fill="#fff">复制完成</text>
<text x="38" y="77" font-size="13" font-family="Arial, PingFang SC" fill="#cbd5e1">从 Runweave 回到飞书继续自然语言操作</text>
<rect x="34" y="116" width="362" height="140" rx="20" fill="#ffffff" stroke="#e2e8f0"/>
<rect x="34" y="116" width="6" height="140" rx="3" fill="#22c55e"/>
<text x="54" y="144" font-size="16" font-weight="700" font-family="Arial, PingFang SC" fill="#0f172a">Toast</text>
<rect x="316" y="128" width="70" height="26" rx="13" fill="#dcfce7"/>
<text x="351.0" y="146" text-anchor="middle" font-size="12" font-weight="700" font-family="Arial, PingFang SC" fill="#15803d">已复制</text>
<text x="54" y="170" font-size="12.5" font-family="Arial, PingFang SC" fill="#475569">上下文已复制到剪贴板</text>
<text x="54" y="189" font-size="12.5" font-family="Arial, PingFang SC" fill="#475569">下一步：打开飞书，粘贴给 Hermes</text>
<text x="54" y="208" font-size="12.5" font-family="Arial, PingFang SC" fill="#475569">或者点击按钮直接打开飞书 App</text>
<rect x="54" y="218" width="72" height="28" rx="14" fill="#2563eb" stroke="#2563eb"/>
<text x="90.0" y="237" text-anchor="middle" font-size="12" font-family="Arial, PingFang SC" fill="#fff">打开飞书</text>
<rect x="134" y="218" width="72" height="28" rx="14" fill="#f8fafc" stroke="#cbd5e1"/>
<text x="170.0" y="237" text-anchor="middle" font-size="12" font-family="Arial, PingFang SC" fill="#334155">留在页面</text>
<rect x="34" y="270" width="362" height="260" rx="22" fill="#f8fafc" stroke="#cbd5e1"/>
<text x="54" y="298" font-size="15" font-weight="700" font-family="Arial, PingFang SC" fill="#0f172a">飞书对话中</text>
<text x="54" y="324" font-size="12.3" font-family="Arial, PingFang SC" fill="#334155">你：Hermes，接管这个 Runweave 终端。</text>
<text x="54" y="342" font-size="12.3" font-family="Arial, PingFang SC" fill="#334155"></text>
<text x="54" y="360" font-size="12.3" font-family="Arial, PingFang SC" fill="#334155">Hermes：我先读取终端状态。</text>
<text x="54" y="378" font-size="12.3" font-family="Arial, PingFang SC" fill="#334155">Hermes：检测到 Codex 正在等待输入。</text>
<text x="54" y="396" font-size="12.3" font-family="Arial, PingFang SC" fill="#334155">Hermes：是否按你的要求继续推进阶段二？</text>
<text x="54" y="414" font-size="12.3" font-family="Arial, PingFang SC" fill="#334155"></text>
<text x="54" y="432" font-size="12.3" font-family="Arial, PingFang SC" fill="#334155">你：继续，完成后跑测试并汇总。</text>
<rect x="34" y="544" width="82" height="54" rx="15" fill="#eff6ff" stroke="#bfdbfe"/>
<text x="75" y="568" text-anchor="middle" font-size="12" font-weight="700" font-family="Arial, PingFang SC" fill="#1d4ed8">Runweave</text>
<text x="75" y="585" text-anchor="middle" font-size="10" font-family="Arial, PingFang SC" fill="#64748b">选择</text>
<text x="123" y="578" font-size="18" fill="#94a3b8">→</text>
<rect x="127" y="544" width="82" height="54" rx="15" fill="#eff6ff" stroke="#bfdbfe"/>
<text x="168" y="568" text-anchor="middle" font-size="12" font-weight="700" font-family="Arial, PingFang SC" fill="#1d4ed8">复制</text>
<text x="168" y="585" text-anchor="middle" font-size="10" font-family="Arial, PingFang SC" fill="#64748b">上下文</text>
<text x="216" y="578" font-size="18" fill="#94a3b8">→</text>
<rect x="220" y="544" width="82" height="54" rx="15" fill="#eff6ff" stroke="#bfdbfe"/>
<text x="261" y="568" text-anchor="middle" font-size="12" font-weight="700" font-family="Arial, PingFang SC" fill="#1d4ed8">飞书</text>
<text x="261" y="585" text-anchor="middle" font-size="10" font-family="Arial, PingFang SC" fill="#64748b">对话</text>
<text x="309" y="578" font-size="18" fill="#94a3b8">→</text>
<rect x="313" y="544" width="82" height="54" rx="15" fill="#eff6ff" stroke="#bfdbfe"/>
<text x="354" y="568" text-anchor="middle" font-size="12" font-weight="700" font-family="Arial, PingFang SC" fill="#1d4ed8">Hermes</text>
<text x="354" y="585" text-anchor="middle" font-size="10" font-family="Arial, PingFang SC" fill="#64748b">执行</text>
</svg>