<svg xmlns="http://www.w3.org/2000/svg" width="430" height="930" viewBox="0 0 430 930">
<defs><filter id="shadow" x="-20%" y="-20%" width="140%" height="140%"><feDropShadow dx="0" dy="8" stdDeviation="12" flood-color="#0f172a" flood-opacity="0.16"/></filter></defs>
<rect width="430" height="930" rx="34" fill="#f6f8fb"/>
<rect x="18" y="14" width="394" height="902" rx="30" fill="#ffffff" filter="url(#shadow)"/>
<rect x="18" y="14" width="394" height="84" rx="30" fill="#0f172a"/>
<text x="38" y="51" font-size="22" font-weight="700" font-family="Arial, PingFang SC" fill="#fff">完整交付流程</text>
<text x="38" y="77" font-size="13" font-family="Arial, PingFang SC" fill="#cbd5e1">方案一落地后的端到端步骤</text>
<rect x="34" y="116" width="82" height="54" rx="15" fill="#eff6ff" stroke="#bfdbfe"/>
<text x="75" y="140" text-anchor="middle" font-size="12" font-weight="700" font-family="Arial, PingFang SC" fill="#1d4ed8">打开</text>
<text x="75" y="157" text-anchor="middle" font-size="10" font-family="Arial, PingFang SC" fill="#64748b">手机页</text>
<text x="123" y="150" font-size="18" fill="#94a3b8">→</text>
<rect x="127" y="116" width="82" height="54" rx="15" fill="#eff6ff" stroke="#bfdbfe"/>
<text x="168" y="140" text-anchor="middle" font-size="12" font-weight="700" font-family="Arial, PingFang SC" fill="#1d4ed8">选项目</text>
<text x="168" y="157" text-anchor="middle" font-size="10" font-family="Arial, PingFang SC" fill="#64748b">run-weave</text>
<text x="216" y="150" font-size="18" fill="#94a3b8">→</text>
<rect x="220" y="116" width="82" height="54" rx="15" fill="#eff6ff" stroke="#bfdbfe"/>
<text x="261" y="140" text-anchor="middle" font-size="12" font-weight="700" font-family="Arial, PingFang SC" fill="#1d4ed8">找终端</text>
<text x="261" y="157" text-anchor="middle" font-size="10" font-family="Arial, PingFang SC" fill="#64748b">Codex</text>
<text x="309" y="150" font-size="18" fill="#94a3b8">→</text>
<rect x="313" y="116" width="82" height="54" rx="15" fill="#eff6ff" stroke="#bfdbfe"/>
<text x="354" y="140" text-anchor="middle" font-size="12" font-weight="700" font-family="Arial, PingFang SC" fill="#1d4ed8">看状态</text>
<text x="354" y="157" text-anchor="middle" font-size="10" font-family="Arial, PingFang SC" fill="#64748b">等待输入</text>
<rect x="34" y="190" width="82" height="54" rx="15" fill="#eff6ff" stroke="#bfdbfe"/>
<text x="75" y="214" text-anchor="middle" font-size="12" font-weight="700" font-family="Arial, PingFang SC" fill="#1d4ed8">点详情</text>
<text x="75" y="231" text-anchor="middle" font-size="10" font-family="Arial, PingFang SC" fill="#64748b">看tail</text>
<text x="123" y="224" font-size="18" fill="#94a3b8">→</text>
<rect x="127" y="190" width="82" height="54" rx="15" fill="#eff6ff" stroke="#bfdbfe"/>
<text x="168" y="214" text-anchor="middle" font-size="12" font-weight="700" font-family="Arial, PingFang SC" fill="#1d4ed8">发给</text>
<text x="168" y="231" text-anchor="middle" font-size="10" font-family="Arial, PingFang SC" fill="#64748b">Hermes</text>
<text x="216" y="224" font-size="18" fill="#94a3b8">→</text>
<rect x="220" y="190" width="82" height="54" rx="15" fill="#eff6ff" stroke="#bfdbfe"/>
<text x="261" y="214" text-anchor="middle" font-size="12" font-weight="700" font-family="Arial, PingFang SC" fill="#1d4ed8">飞书</text>
<text x="261" y="231" text-anchor="middle" font-size="10" font-family="Arial, PingFang SC" fill="#64748b">补指令</text>
<text x="309" y="224" font-size="18" fill="#94a3b8">→</text>
<rect x="313" y="190" width="82" height="54" rx="15" fill="#eff6ff" stroke="#bfdbfe"/>
<text x="354" y="214" text-anchor="middle" font-size="12" font-weight="700" font-family="Arial, PingFang SC" fill="#1d4ed8">等待</text>
<text x="354" y="231" text-anchor="middle" font-size="10" font-family="Arial, PingFang SC" fill="#64748b">结果</text>
<rect x="34" y="264" width="362" height="170" rx="20" fill="#ffffff" stroke="#e2e8f0"/>
<rect x="34" y="264" width="6" height="170" rx="3" fill="#2563eb"/>
<text x="54" y="292" font-size="16" font-weight="700" font-family="Arial, PingFang SC" fill="#0f172a">用户步骤</text>
<rect x="287" y="276" width="99" height="26" rx="13" fill="#dbeafe"/>
<text x="336.5" y="294" text-anchor="middle" font-size="12" font-weight="700" font-family="Arial, PingFang SC" fill="#2563eb">8 steps</text>
<text x="54" y="318" font-size="12.5" font-family="Arial, PingFang SC" fill="#475569">1 打开 Tailscale Serve 的 Runweave 页面</text>
<text x="54" y="337" font-size="12.5" font-family="Arial, PingFang SC" fill="#475569">2 进入 /mobile/terminals</text>
<text x="54" y="356" font-size="12.5" font-family="Arial, PingFang SC" fill="#475569">3 选择 run-weave 项目</text>
<text x="54" y="375" font-size="12.5" font-family="Arial, PingFang SC" fill="#475569">4 找到黄色“等待输入”的 Codex 卡片</text>
<rect x="34" y="448" width="362" height="150" rx="20" fill="#ffffff" stroke="#e2e8f0"/>
<rect x="34" y="448" width="6" height="150" rx="3" fill="#22c55e"/>
<text x="54" y="476" font-size="16" font-weight="700" font-family="Arial, PingFang SC" fill="#0f172a">MVP 验收</text>
<rect x="316" y="460" width="70" height="26" rx="13" fill="#dcfce7"/>
<text x="351.0" y="478" text-anchor="middle" font-size="12" font-weight="700" font-family="Arial, PingFang SC" fill="#15803d">Done</text>
<text x="54" y="502" font-size="12.5" font-family="Arial, PingFang SC" fill="#475569">用户能在 10 秒内找到目标终端</text>
<text x="54" y="521" font-size="12.5" font-family="Arial, PingFang SC" fill="#475569">能区分等待输入 / 正在执行 / 空闲</text>
<text x="54" y="540" font-size="12.5" font-family="Arial, PingFang SC" fill="#475569">复制内容足够 Hermes 安全接管</text>
<text x="54" y="559" font-size="12.5" font-family="Arial, PingFang SC" fill="#475569">Hermes 不会误打断正在执行的 Codex</text>
</svg>