<svg
  xmlns="http://www.w3.org/2000/svg"
  width="1440"
  height="900"
  viewBox="0 0 1440 900"
  role="img"
  aria-labelledby="title desc"
>
  <title id="title">Expanded Markdown split view</title>
  <desc id="desc">
    Sketch of Preview expanded inside the workspace with Markdown source and
    rendered preview shown side by side at a usable width.
  </desc>
  <defs>
    <style>
      .ui {
        font-family: Inter, ui-sans-serif, system-ui, -apple-system, "Segoe UI",
          sans-serif;
      }
      .mono {
        font-family: "SFMono-Regular", Menlo, Consolas, monospace;
      }
      .muted {
        fill: #94a3b8;
      }
      .text {
        fill: #e2e8f0;
      }
      .accent {
        fill: #22d3ee;
      }
      .green {
        fill: #86efac;
      }
    </style>
  </defs>

  <rect width="1440" height="900" fill="#0f172a" />
  <rect x="24" y="24" width="1392" height="852" rx="18" fill="#020617" stroke="#1e293b" />
  <rect x="24" y="24" width="1392" height="92" rx="18" fill="#111827" />
  <circle cx="54" cy="55" r="7" fill="#ef4444" />
  <circle cx="78" cy="55" r="7" fill="#f59e0b" />
  <circle cx="102" cy="55" r="7" fill="#22c55e" />
  <rect x="132" y="39" width="154" height="32" rx="16" fill="#f8fafc" />
  <text x="157" y="60" class="ui" font-size="13" font-weight="700" fill="#020617">Preview Project</text>
  <rect x="302" y="39" width="112" height="32" rx="16" fill="#1e293b" />
  <text x="330" y="60" class="ui muted" font-size="13">Terminal 1</text>
  <rect x="1134" y="39" width="134" height="32" rx="16" fill="#334155" />
  <text x="1163" y="60" class="ui text" font-size="13" font-weight="700">Preview: File</text>

  <rect x="44" y="136" width="1352" height="720" rx="12" fill="#020617" stroke="#334155" />
  <rect x="44" y="136" width="1352" height="66" rx="12" fill="#0f172a" />
  <text x="72" y="176" class="ui text" font-size="16" font-weight="700">Open file</text>
  <rect x="1060" y="154" width="36" height="30" rx="6" fill="#e2e8f0" />
  <text x="1067" y="174" class="ui" font-size="11" font-weight="700" fill="#020617">RES</text>
  <text x="1106" y="174" class="ui muted" font-size="12">Restore side panel</text>
  <rect x="1338" y="154" width="34" height="30" rx="6" fill="#1e293b" />
  <text x="1350" y="174" class="ui text" font-size="13" font-weight="700">X</text>

  <rect x="44" y="202" width="1352" height="48" fill="#020617" stroke="#1e293b" />
  <text x="72" y="232" class="ui muted" font-size="13">docs/architecture/terminal-code-preview.md</text>
  <rect x="1196" y="214" width="50" height="24" rx="5" fill="#1e293b" />
  <text x="1206" y="230" class="ui muted" font-size="11">Source</text>
  <rect x="1252" y="214" width="42" height="24" rx="5" fill="#e2e8f0" />
  <text x="1262" y="230" class="ui" font-size="11" font-weight="700" fill="#020617">Split</text>
  <rect x="1300" y="214" width="58" height="24" rx="5" fill="#1e293b" />
  <text x="1310" y="230" class="ui muted" font-size="11">Preview</text>

  <rect x="72" y="278" width="612" height="526" rx="8" fill="#0b1120" stroke="#334155" />
  <text x="104" y="326" class="ui muted" font-size="13">Readonly Markdown source</text>
  <text x="104" y="372" class="mono accent" font-size="15"># Terminal Preview Plan</text>
  <text x="104" y="414" class="mono text" font-size="15">Preview can expand inside the workspace.</text>
  <text x="104" y="456" class="mono muted" font-size="15">- Default reading mode is Preview</text>
  <text x="104" y="490" class="mono muted" font-size="15">- Split remains available when needed</text>
  <text x="104" y="524" class="mono muted" font-size="15">- Source is still readonly</text>
  <rect x="104" y="570" width="430" height="86" rx="8" fill="#111827" stroke="#1e293b" />
  <text x="128" y="606" class="mono green" font-size="14">```mermaid</text>
  <text x="128" y="634" class="mono muted" font-size="14">graph TD</text>

  <rect x="696" y="278" width="4" height="526" fill="#475569" />
  <rect x="712" y="278" width="656" height="526" rx="8" fill="#0b1120" stroke="#334155" />
  <text x="744" y="326" class="ui muted" font-size="13">Rendered Markdown preview</text>
  <text x="744" y="376" class="ui text" font-size="30" font-weight="700">Terminal Preview Plan</text>
  <text x="744" y="432" class="ui text" font-size="16">Preview can expand inside the workspace.</text>
  <rect x="744" y="470" width="450" height="9" rx="4" fill="#475569" />
  <rect x="744" y="500" width="390" height="9" rx="4" fill="#475569" />
  <rect x="744" y="530" width="420" height="9" rx="4" fill="#475569" />
  <rect x="744" y="584" width="434" height="92" rx="8" fill="#111827" stroke="#334155" />
  <circle cx="812" cy="630" r="24" fill="#0ea5e9" />
  <circle cx="910" cy="630" r="24" fill="#22c55e" />
  <path d="M836 630 H886" stroke="#e2e8f0" stroke-width="3" />
  <text x="744" y="742" class="ui accent" font-size="14" font-weight="700">Expanded Split:</text>
  <text x="870" y="742" class="ui muted" font-size="14">both columns are wide enough to read.</text>
</svg>
