<svg width="1180" height="760" viewBox="0 0 1180 760" fill="none" xmlns="http://www.w3.org/2000/svg">
  <rect width="1180" height="760" rx="22" fill="#0B1020"/>
  <rect x="24" y="24" width="1132" height="712" rx="16" fill="#111827" stroke="#263244"/>

  <rect x="48" y="48" width="1084" height="48" rx="8" fill="#151F32" stroke="#334155"/>
  <text x="70" y="78" fill="#CBD5E1" font-family="Inter, Arial, sans-serif" font-size="18" font-weight="600">Runweave Terminal Workspace</text>
  <rect x="910" y="58" width="88" height="28" rx="6" fill="#1E293B" stroke="#475569"/>
  <text x="930" y="77" fill="#E2E8F0" font-family="Inter, Arial, sans-serif" font-size="12">Preview</text>
  <rect x="1010" y="58" width="86" height="28" rx="6" fill="#0369A1" stroke="#38BDF8"/>
  <text x="1030" y="77" fill="#F8FAFC" font-family="Inter, Arial, sans-serif" font-size="12">Browser</text>

  <rect x="48" y="120" width="680" height="592" rx="10" fill="#020617" stroke="#1F2937"/>
  <rect x="64" y="136" width="648" height="34" rx="6" fill="#0F172A" stroke="#334155"/>
  <text x="82" y="158" fill="#94A3B8" font-family="JetBrains Mono, Menlo, monospace" font-size="14">$ codex use playwright-cli to inspect the page</text>
  <rect x="64" y="190" width="648" height="490" rx="8" fill="#050816" stroke="#1E293B"/>
  <text x="88" y="226" fill="#38BDF8" font-family="JetBrains Mono, Menlo, monospace" font-size="14">echo "$PLAYWRIGHT_MCP_CDP_ENDPOINT"</text>
  <text x="88" y="256" fill="#7DD3FC" font-family="JetBrains Mono, Menlo, monospace" font-size="14">http://127.0.0.1:9224</text>
  <text x="88" y="306" fill="#CBD5E1" font-family="JetBrains Mono, Menlo, monospace" font-size="14">playwright-cli snapshot</text>
  <text x="88" y="356" fill="#CBD5E1" font-family="JetBrains Mono, Menlo, monospace" font-size="14">codex</text>
  <rect x="88" y="470" width="246" height="38" rx="7" fill="#1E293B" stroke="#475569"/>
  <text x="110" y="494" fill="#E2E8F0" font-family="JetBrains Mono, Menlo, monospace" font-size="14">playwright-cli snapshot</text>
  <path d="M360 489H520" stroke="#38BDF8" stroke-width="2" stroke-dasharray="6 6"/>
  <path d="M520 489L504 481V497L520 489Z" fill="#38BDF8"/>

  <rect x="752" y="120" width="380" height="592" rx="10" fill="#0F172A" stroke="#334155"/>
  <rect x="772" y="140" width="340" height="34" rx="7" fill="#1E293B" stroke="#475569"/>
  <rect x="782" y="147" width="94" height="20" rx="5" fill="#0369A1"/>
  <text x="804" y="162" fill="#F8FAFC" font-family="Inter, Arial, sans-serif" font-size="12">Local 5173</text>
  <rect x="884" y="147" width="74" height="20" rx="5" fill="#111827" stroke="#334155"/>
  <text x="904" y="162" fill="#CBD5E1" font-family="Inter, Arial, sans-serif" font-size="12">Docs</text>

  <rect x="772" y="188" width="340" height="38" rx="7" fill="#111827" stroke="#334155"/>
  <circle cx="792" cy="207" r="9" fill="#1E293B" stroke="#64748B"/>
  <text x="789" y="211" fill="#CBD5E1" font-family="Inter, Arial, sans-serif" font-size="12">‹</text>
  <circle cx="818" cy="207" r="9" fill="#1E293B" stroke="#64748B"/>
  <text x="815" y="211" fill="#CBD5E1" font-family="Inter, Arial, sans-serif" font-size="12">›</text>
  <rect x="840" y="197" width="176" height="20" rx="5" fill="#020617" stroke="#334155"/>
  <text x="852" y="211" fill="#94A3B8" font-family="Inter, Arial, sans-serif" font-size="11">http://127.0.0.1:5173</text>
  <rect x="1026" y="197" width="24" height="20" rx="5" fill="#111827" stroke="#334155"/>
  <text x="1033" y="211" fill="#CBD5E1" font-family="Inter, Arial, sans-serif" font-size="11">{ }</text>
  <rect x="1058" y="197" width="24" height="20" rx="5" fill="#0369A1" stroke="#38BDF8"/>
  <text x="1064" y="211" fill="#F8FAFC" font-family="Inter, Arial, sans-serif" font-size="11">CDP</text>

  <rect x="772" y="244" width="340" height="448" rx="8" fill="#F8FAFC"/>
  <rect x="794" y="270" width="296" height="48" rx="8" fill="#E0F2FE"/>
  <text x="820" y="300" fill="#075985" font-family="Inter, Arial, sans-serif" font-size="16" font-weight="700">Local app page</text>
  <rect x="800" y="342" width="284" height="18" rx="4" fill="#CBD5E1"/>
  <rect x="800" y="374" width="210" height="18" rx="4" fill="#CBD5E1"/>
  <rect x="800" y="428" width="92" height="36" rx="7" fill="#0EA5E9"/>
  <text x="824" y="451" fill="#F8FAFC" font-family="Inter, Arial, sans-serif" font-size="13">Submit</text>

  <rect x="650" y="250" width="404" height="126" rx="12" fill="#0B1220" stroke="#38BDF8" stroke-width="2"/>
  <text x="676" y="284" fill="#E2E8F0" font-family="Inter, Arial, sans-serif" font-size="16" font-weight="700">CDP connection</text>
  <rect x="676" y="310" width="350" height="42" rx="7" fill="#020617" stroke="#334155"/>
  <text x="694" y="336" fill="#7DD3FC" font-family="JetBrains Mono, Menlo, monospace" font-size="14">http://127.0.0.1:9224</text>
  <rect x="992" y="322" width="22" height="22" rx="4" fill="#111827" stroke="#475569"/>
  <path d="M1000 327H1010V337H1000V327Z" stroke="#CBD5E1" stroke-width="1.5"/>
  <path d="M996 331H1006V341H996V331Z" stroke="#CBD5E1" stroke-width="1.5"/>

  <path d="M860 240V226" stroke="#38BDF8" stroke-width="2"/>
  <path d="M860 240L852 226H868L860 240Z" fill="#38BDF8"/>
  <text x="804" y="608" fill="#94A3B8" font-family="Inter, Arial, sans-serif" font-size="13">Browser surface keeps running; terminal automation attaches through CDP.</text>
</svg>
