<svg xmlns="http://www.w3.org/2000/svg" width="1440" height="900" viewBox="0 0 1440 900" role="img" aria-labelledby="title desc">
  <title id="title">Scheme A - Compact Workbench without Status Bar</title>
  <desc id="desc">Dense terminal workbench layout with compact project and session headers, terminal surface, preview changes panel, context menu, no bottom status bar, and no visible shortcut hints.</desc>
  <rect width="1440" height="900" fill="#050912"/>
  <rect x="6" y="6" width="1428" height="888" rx="4" fill="#07111d" stroke="#253244"/>

  <rect x="6" y="6" width="1428" height="32" fill="#0b1420" stroke="#253244"/>
  <rect x="16" y="11" width="24" height="22" rx="3" fill="#111d2a" stroke="#334155"/>
  <text x="24" y="27" fill="#e2e8f0" font-family="Menlo, monospace" font-size="12">⌂</text>
  <rect x="48" y="10" width="130" height="24" rx="3" fill="#101b2a" stroke="#334155"/>
  <text x="60" y="27" fill="#cbd5e1" font-family="Inter, Arial" font-size="12">local-dev ●</text>
  <rect x="190" y="10" width="122" height="24" rx="3" fill="#172235" stroke="#64748b"/>
  <text x="203" y="27" fill="#f8fafc" font-family="Inter, Arial" font-size="12">run-weave</text>
  <rect x="318" y="10" width="160" height="24" rx="3" fill="#0c1624" stroke="#334155"/>
  <text x="331" y="27" fill="#94a3b8" font-family="Inter, Arial" font-size="12">browser-viewer ●</text>
  <rect x="484" y="10" width="144" height="24" rx="3" fill="#0c1624" stroke="#334155"/>
  <text x="497" y="27" fill="#94a3b8" font-family="Inter, Arial" font-size="12">electron-client</text>
  <rect x="634" y="10" width="28" height="24" rx="3" fill="#0c1624" stroke="#334155"/>
  <text x="644" y="27" fill="#cbd5e1" font-family="Inter, Arial" font-size="14">+</text>
  <rect x="972" y="10" width="140" height="24" rx="3" fill="#101b2a" stroke="#94a3b8"/>
  <text x="987" y="27" fill="#f8fafc" font-family="Inter, Arial" font-size="12">Preview: Changes</text>
  <text x="1130" y="27" fill="#cbd5e1" font-family="Inter, Arial" font-size="12">Open File</text>
  <text x="1210" y="27" fill="#cbd5e1" font-family="Inter, Arial" font-size="12">History</text>
  <rect x="1292" y="10" width="130" height="24" rx="3" fill="#101b2a" stroke="#334155"/>
  <text x="1310" y="27" fill="#cbd5e1" font-family="Inter, Arial" font-size="12">New Project</text>

  <rect x="6" y="38" width="1428" height="26" fill="#08111d" stroke="#1e293b"/>
  <rect x="16" y="42" width="34" height="18" rx="3" fill="#101b2a" stroke="#334155"/>
  <text x="26" y="56" fill="#e2e8f0" font-family="Menlo, monospace" font-size="11">&gt;_</text>
  <rect x="60" y="41" width="116" height="20" rx="3" fill="#172235" stroke="#334155"/>
  <text x="74" y="56" fill="#f8fafc" font-family="Inter, Arial" font-size="12">vite dev ●</text>
  <rect x="184" y="41" width="112" height="20" rx="3" fill="#101b2a" stroke="#334155"/>
  <text x="198" y="56" fill="#cbd5e1" font-family="Inter, Arial" font-size="12">git server</text>
  <rect x="304" y="41" width="122" height="20" rx="3" fill="#101b2a" stroke="#334155"/>
  <text x="318" y="56" fill="#cbd5e1" font-family="Inter, Arial" font-size="12">websocket ●</text>
  <rect x="434" y="41" width="28" height="20" rx="3" fill="#101b2a" stroke="#334155"/>
  <text x="444" y="56" fill="#cbd5e1" font-family="Inter, Arial" font-size="13">+</text>

  <rect x="248" y="64" width="178" height="96" rx="4" fill="#111827" stroke="#334155"/>
  <text x="270" y="91" fill="#e2e8f0" font-family="Inter, Arial" font-size="13">✎ Edit Project</text>
  <line x1="248" y1="112" x2="426" y2="112" stroke="#253244"/>
  <text x="270" y="140" fill="#fb7185" font-family="Inter, Arial" font-size="13">⌫ Delete Project</text>

  <rect x="6" y="64" width="850" height="830" fill="#050b14" stroke="#253244"/>
  <text x="26" y="112" fill="#22c55e" font-family="Menlo, monospace" font-size="16">runweave@MacBook-Pro</text>
  <text x="220" y="112" fill="#38bdf8" font-family="Menlo, monospace" font-size="16">~/Desktop/vscode/browser-viewer</text>
  <text x="26" y="150" fill="#e2e8f0" font-family="Menlo, monospace" font-size="15">→ pnpm dev</text>
  <text x="26" y="196" fill="#94a3b8" font-family="Menlo, monospace" font-size="15">&gt; run-weave@0.1.0 dev /Users/bytedance/Desktop/vscode/browser-viewer</text>
  <text x="26" y="232" fill="#94a3b8" font-family="Menlo, monospace" font-size="15">&gt; pnpm --filter frontend dev</text>
  <text x="58" y="298" fill="#22c55e" font-family="Menlo, monospace" font-size="17">VITE v5.2.11</text>
  <text x="208" y="298" fill="#94a3b8" font-family="Menlo, monospace" font-size="15">ready in 382 ms</text>
  <text x="58" y="350" fill="#22c55e" font-family="Menlo, monospace" font-size="15">➜</text>
  <text x="102" y="350" fill="#e2e8f0" font-family="Menlo, monospace" font-size="15">Local:</text>
  <text x="178" y="350" fill="#38bdf8" font-family="Menlo, monospace" font-size="15">http://localhost:5173/</text>
  <text x="58" y="410" fill="#64748b" font-family="Menlo, monospace" font-size="14">10:21:08 AM</text>
  <text x="166" y="410" fill="#38bdf8" font-family="Menlo, monospace" font-size="14">[vite]</text>
  <text x="233" y="410" fill="#cbd5e1" font-family="Menlo, monospace" font-size="14">hmr update /src/pages/terminal-page.tsx</text>

  <rect x="856" y="64" width="578" height="830" fill="#08111d" stroke="#253244"/>
  <rect x="856" y="64" width="578" height="36" fill="#0b1420" stroke="#253244"/>
  <text x="880" y="88" fill="#f8fafc" font-family="Inter, Arial" font-size="14">Preview: Changes</text>
  <rect x="950" y="73" width="66" height="18" rx="3" fill="#111827" stroke="#334155"/>
  <text x="966" y="86" fill="#94a3b8" font-family="Inter, Arial" font-size="10">READ ONLY</text>
  <rect x="1294" y="72" width="24" height="20" rx="3" fill="#111827" stroke="#334155"/>
  <text x="1302" y="86" fill="#cbd5e1" font-family="Inter, Arial" font-size="12">↻</text>
  <rect x="1322" y="72" width="24" height="20" rx="3" fill="#111827" stroke="#334155"/>
  <text x="1329" y="86" fill="#cbd5e1" font-family="Inter, Arial" font-size="12">⧉</text>
  <rect x="1350" y="72" width="24" height="20" rx="3" fill="#111827" stroke="#334155"/>
  <text x="1357" y="86" fill="#cbd5e1" font-family="Inter, Arial" font-size="12">⤢</text>
  <rect x="1378" y="72" width="24" height="20" rx="3" fill="#111827" stroke="#334155"/>
  <text x="1386" y="86" fill="#cbd5e1" font-family="Inter, Arial" font-size="14">×</text>
  <rect x="856" y="100" width="578" height="34" fill="#09131f" stroke="#253244"/>
  <rect x="870" y="107" width="72" height="20" rx="3" fill="#162033" stroke="#334155"/>
  <text x="890" y="121" fill="#f8fafc" font-family="Inter, Arial" font-size="11">Changes</text>
  <rect x="948" y="107" width="54" height="20" rx="3" fill="#0b1420" stroke="#334155"/>
  <text x="965" y="121" fill="#94a3b8" font-family="Inter, Arial" font-size="11">File</text>
  <rect x="1012" y="107" width="120" height="20" rx="3" fill="#0b1420" stroke="#334155"/>
  <text x="1028" y="121" fill="#64748b" font-family="Inter, Arial" font-size="11">src/preview.tsx</text>
  <rect x="1142" y="107" width="120" height="20" rx="3" fill="#0b1420" stroke="#334155"/>
  <text x="1158" y="121" fill="#94a3b8" font-family="Inter, Arial" font-size="11">diff</text>
  <text x="1202" y="121" fill="#64748b" font-family="Inter, Arial" font-size="11">preview</text>
  <rect x="1274" y="107" width="146" height="20" rx="3" fill="#0b1420" stroke="#334155"/>
  <text x="1288" y="121" fill="#94a3b8" font-family="Inter, Arial" font-size="11">source split preview</text>
  <rect x="856" y="134" width="250" height="760" fill="#0b1420" stroke="#253244"/>
  <text x="878" y="170" fill="#94a3b8" font-family="Inter, Arial" font-size="12">STAGED (8)</text>
  <rect x="866" y="188" width="230" height="34" fill="#162033" stroke="#253244"/>
  <text x="890" y="210" fill="#e2e8f0" font-family="Inter, Arial" font-size="12">terminal-preview-panel.tsx</text>
  <text x="878" y="258" fill="#94a3b8" font-family="Inter, Arial" font-size="12">WORKING TREE (16)</text>
  <rect x="866" y="276" width="230" height="28" fill="#0b1420" stroke="#253244"/>
  <text x="890" y="295" fill="#cbd5e1" font-family="Inter, Arial" font-size="12">terminal-surface.tsx</text>
  <rect x="1102" y="64" width="4" height="830" fill="#334155"/>
  <rect x="1106" y="134" width="328" height="760" fill="#07111d" stroke="#253244"/>
  <rect x="1124" y="174" width="286" height="330" fill="#091521" stroke="#253244"/>
  <rect x="1124" y="254" width="286" height="92" fill="#3f1620" opacity="0.82"/>
  <rect x="1124" y="346" width="286" height="118" fill="#12351f" opacity="0.75"/>
  <text x="1142" y="202" fill="#94a3b8" font-family="Menlo, monospace" font-size="13">@@ -128,7 +128,11 @@</text>
  <text x="1142" y="284" fill="#fecdd3" font-family="Menlo, monospace" font-size="13">- void loadFile(selectedFilePath);</text>
  <text x="1142" y="378" fill="#bbf7d0" font-family="Menlo, monospace" font-size="13">+ setAssetRefreshKey((c) =&gt; c + 1);</text>
  <rect x="1258" y="834" width="108" height="22" rx="3" fill="#0b1420" stroke="#334155"/>
  <text x="1273" y="849" fill="#cbd5e1" font-family="Inter, Arial" font-size="11">Open another...</text>
</svg>
