<svg
  xmlns="http://www.w3.org/2000/svg"
  width="1440"
  height="900"
  viewBox="0 0 1440 900"
  role="img"
  aria-labelledby="title desc"
>
  <title id="title">
    Markdown rendered preview in the Terminal preview panel
  </title>
  <desc id="desc">
    Runweave Terminal with a right-side Preview panel showing a Markdown file
    rendered in preview-only mode, with Source, Split, and Preview available as
    view switches.
  </desc>
  <defs>
    <linearGradient id="page" x1="0" x2="1" y1="0" y2="1">
      <stop offset="0" stop-color="#111827" />
      <stop offset="1" stop-color="#020617" />
    </linearGradient>
    <linearGradient id="terminal" x1="0" x2="1" y1="0" y2="1">
      <stop offset="0" stop-color="#020617" />
      <stop offset="1" stop-color="#0b1120" />
    </linearGradient>
    <filter id="windowShadow" x="-10%" y="-10%" width="120%" height="120%">
      <feDropShadow
        dx="0"
        dy="28"
        stdDeviation="26"
        flood-color="#020617"
        flood-opacity="0.62"
      />
    </filter>
    <style>
      .ui {
        font-family:
          Inter,
          ui-sans-serif,
          system-ui,
          -apple-system,
          BlinkMacSystemFont,
          "Segoe UI",
          sans-serif;
      }
      .mono {
        font-family:
          "SFMono-Regular", "JetBrains Mono", Menlo, Consolas, monospace;
      }
      .muted {
        fill: #94a3b8;
      }
      .faint {
        fill: #64748b;
      }
      .text {
        fill: #e2e8f0;
      }
    </style>
  </defs>

  <rect width="1440" height="900" fill="url(#page)" />
  <rect
    x="22"
    y="22"
    width="1396"
    height="856"
    rx="24"
    fill="#020617"
    stroke="#1e293b"
    filter="url(#windowShadow)"
  />
  <rect x="22" y="22" width="1396" height="96" rx="24" fill="#0f172a" />
  <rect x="22" y="94" width="1396" height="24" fill="#020617" />
  <circle cx="52" cy="54" r="7" fill="#ef4444" />
  <circle cx="76" cy="54" r="7" fill="#f59e0b" />
  <circle cx="100" cy="54" r="7" fill="#22c55e" />
  <rect x="130" y="38" width="134" height="32" rx="16" fill="#f8fafc" />
  <text
    x="154"
    y="59"
    class="ui"
    font-size="13"
    font-weight="700"
    fill="#020617"
  >
    Default Project
  </text>
  <rect
    x="276"
    y="38"
    width="112"
    height="32"
    rx="16"
    fill="#020617"
    stroke="#334155"
  />
  <text x="302" y="59" class="ui" font-size="13" fill="#cbd5e1">AI Worker</text>
  <rect x="1214" y="38" width="160" height="34" rx="17" fill="#2563eb" />
  <text
    x="1255"
    y="60"
    class="ui"
    font-size="13"
    font-weight="700"
    fill="#eff6ff"
  >
    New Project
  </text>

  <rect x="38" y="80" width="186" height="28" rx="14" fill="#f8fafc" />
  <text
    x="60"
    y="99"
    class="ui"
    font-size="12"
    font-weight="700"
    fill="#020617"
  >
    codex-agent
  </text>
  <rect
    x="235"
    y="80"
    width="176"
    height="28"
    rx="14"
    fill="#0f172a"
    stroke="#334155"
  />
  <text x="257" y="99" class="ui" font-size="12" fill="#cbd5e1">pnpm dev</text>
  <text x="856" y="99" class="ui" font-size="11" fill="#64748b">
    Project Alt+[ / Alt+] Tab Alt+Shift+[ / Alt+Shift+]
  </text>
  <rect
    x="1114"
    y="80"
    width="148"
    height="28"
    rx="14"
    fill="#172554"
    stroke="#2563eb"
  />
  <text
    x="1136"
    y="99"
    class="ui"
    font-size="12"
    font-weight="700"
    fill="#bfdbfe"
  >
    Preview: File
  </text>
  <rect x="1272" y="80" width="120" height="28" rx="14" fill="#2563eb" />
  <text
    x="1294"
    y="99"
    class="ui"
    font-size="12"
    font-weight="700"
    fill="#eff6ff"
  >
    New Terminal
  </text>

  <rect
    x="38"
    y="136"
    width="804"
    height="710"
    fill="url(#terminal)"
    stroke="#1e293b"
  />
  <g class="mono" font-size="15">
    <text x="64" y="176" class="muted">$ codex</text>
    <text x="64" y="202" class="text">
      Open the Markdown plan beside the terminal.
    </text>
    <text x="64" y="250" class="muted">$ ls docs/architecture</text>
    <text x="64" y="276" fill="#38bdf8">terminal-code-preview.md</text>
    <text x="64" y="324" class="muted">$</text>
    <rect
      x="84"
      y="311"
      width="10"
      height="20"
      rx="1"
      fill="#e2e8f0"
      opacity="0.86"
    />
  </g>

  <rect x="850" y="136" width="1" height="710" fill="#334155" />
  <rect x="861" y="404" width="8" height="118" rx="4" fill="#475569" />
  <rect
    x="882"
    y="136"
    width="520"
    height="710"
    fill="#020617"
    stroke="#1e293b"
  />

  <rect x="882" y="136" width="520" height="54" fill="#0f172a" />
  <text
    x="906"
    y="169"
    class="ui"
    font-size="14"
    font-weight="700"
    fill="#f8fafc"
  >
    Open file
  </text>
  <rect
    x="1004"
    y="151"
    width="82"
    height="24"
    rx="12"
    fill="#172554"
    stroke="#2563eb"
  />
  <text x="1024" y="168" class="ui" font-size="11" fill="#bfdbfe">
    Read only
  </text>
  <text x="1128" y="168" class="ui" font-size="10" fill="#64748b">
    Updated 4s ago
  </text>
  <rect
    x="1212"
    y="151"
    width="66"
    height="24"
    rx="12"
    fill="#020617"
    stroke="#334155"
  />
  <text x="1227" y="168" class="ui" font-size="10" fill="#cbd5e1">Refresh</text>
  <rect
    x="1286"
    y="151"
    width="72"
    height="24"
    rx="12"
    fill="#020617"
    stroke="#334155"
  />
  <text x="1300" y="168" class="ui" font-size="10" fill="#cbd5e1">
    Copy path
  </text>
  <rect
    x="1366"
    y="151"
    width="28"
    height="24"
    rx="12"
    fill="#020617"
    stroke="#334155"
  />
  <text x="1376" y="168" class="ui" font-size="11" fill="#cbd5e1">X</text>

  <rect
    x="882"
    y="190"
    width="520"
    height="48"
    fill="#020617"
    stroke="#1e293b"
  />
  <text x="906" y="219" class="mono" font-size="12" fill="#94a3b8">
    docs/architecture/terminal-code-preview.md
  </text>
  <rect
    x="1162"
    y="202"
    width="62"
    height="24"
    rx="8"
    fill="#020617"
    stroke="#334155"
  />
  <text x="1176" y="219" class="ui" font-size="11" fill="#cbd5e1">Source</text>
  <rect
    x="1228"
    y="202"
    width="56"
    height="24"
    rx="8"
    fill="#020617"
    stroke="#334155"
  />
  <text x="1244" y="219" class="ui" font-size="11" fill="#cbd5e1">Split</text>
  <rect x="1288" y="202" width="86" height="24" rx="8" fill="#2563eb" />
  <text
    x="1307"
    y="219"
    class="ui"
    font-size="11"
    font-weight="700"
    fill="#eff6ff"
  >
    Preview
  </text>

  <rect
    x="906"
    y="260"
    width="472"
    height="548"
    fill="#0b1120"
    stroke="#1e293b"
  />
  <text
    x="934"
    y="310"
    class="ui"
    font-size="26"
    font-weight="800"
    fill="#f8fafc"
  >
    Terminal code preview
  </text>
  <rect x="934" y="330" width="210" height="2" fill="#334155" />
  <text x="934" y="370" class="ui" font-size="14" fill="#cbd5e1">
    Runweave Terminal uses Preview as a temporary reading space, not a full IDE.
  </text>
  <text
    x="934"
    y="402"
    class="ui"
    font-size="15"
    font-weight="700"
    fill="#e2e8f0"
  >
    Goals
  </text>
  <circle cx="944" cy="432" r="7" fill="#052e16" stroke="#16a34a" />
  <path
    d="M940 432l3 3 6-7"
    fill="none"
    stroke="#86efac"
    stroke-width="1.6"
    stroke-linecap="round"
    stroke-linejoin="round"
  />
  <text x="964" y="437" class="ui" font-size="13" fill="#cbd5e1">
    Read plans without leaving Terminal
  </text>
  <circle cx="944" cy="462" r="7" fill="#052e16" stroke="#16a34a" />
  <path
    d="M940 462l3 3 6-7"
    fill="none"
    stroke="#86efac"
    stroke-width="1.6"
    stroke-linecap="round"
    stroke-linejoin="round"
  />
  <text x="964" y="467" class="ui" font-size="13" fill="#cbd5e1">
    Keep code and docs read-only
  </text>
  <circle cx="944" cy="492" r="7" fill="#052e16" stroke="#16a34a" />
  <path
    d="M940 492l3 3 6-7"
    fill="none"
    stroke="#86efac"
    stroke-width="1.6"
    stroke-linecap="round"
    stroke-linejoin="round"
  />
  <text x="964" y="497" class="ui" font-size="13" fill="#cbd5e1">
    Use one panel area, no split preview
  </text>

  <text
    x="934"
    y="546"
    class="ui"
    font-size="15"
    font-weight="700"
    fill="#e2e8f0"
  >
    Interaction
  </text>
  <rect
    x="934"
    y="566"
    width="390"
    height="54"
    rx="8"
    fill="#020617"
    stroke="#334155"
  />
  <text x="956" y="592" class="mono" font-size="12" fill="#93c5fd">
    Source / Split / Preview
  </text>
  <text x="956" y="612" class="ui" font-size="12" fill="#94a3b8">
    The selected view replaces the same content area.
  </text>
  <text
    x="934"
    y="646"
    class="ui"
    font-size="15"
    font-weight="700"
    fill="#e2e8f0"
  >
    Mermaid
  </text>
  <rect
    x="934"
    y="666"
    width="390"
    height="88"
    rx="8"
    fill="#020617"
    stroke="#334155"
  />
  <rect
    x="968"
    y="698"
    width="86"
    height="30"
    rx="8"
    fill="#172554"
    stroke="#2563eb"
  />
  <text
    x="992"
    y="718"
    class="ui"
    font-size="11"
    font-weight="700"
    fill="#dbeafe"
  >
    Plan
  </text>
  <rect
    x="1112"
    y="698"
    width="92"
    height="30"
    rx="8"
    fill="#052e16"
    stroke="#16a34a"
  />
  <text
    x="1134"
    y="718"
    class="ui"
    font-size="11"
    font-weight="700"
    fill="#bbf7d0"
  >
    Tests
  </text>
  <path
    d="M1058 713h48"
    fill="none"
    stroke="#60a5fa"
    stroke-width="2"
    stroke-linecap="round"
  />
  <path d="M1106 713l-8-5v10z" fill="#60a5fa" />
  <text x="956" y="743" class="ui" font-size="10" fill="#94a3b8">
    Mermaid diagram renders inline and remains read-only.
  </text>
  <text x="934" y="774" class="ui" font-size="13" fill="#cbd5e1">
    See also:
  </text>
  <text x="998" y="774" class="ui" font-size="13" fill="#60a5fa">
    testing layers
  </text>
  <text x="1088" y="774" class="ui" font-size="13" fill="#cbd5e1">and</text>
  <text x="1130" y="774" class="ui" font-size="13" fill="#60a5fa">
    network topology
  </text>
  <rect
    x="934"
    y="786"
    width="390"
    height="24"
    rx="8"
    fill="#020617"
    stroke="#1e293b"
  />
  <text x="956" y="802" class="ui" font-size="10" fill="#94a3b8">
    markdown-it + Mermaid. Raw HTML remains disabled.
  </text>
</svg>
