<svg
  xmlns="http://www.w3.org/2000/svg"
  width="1440"
  height="900"
  viewBox="0 0 1440 900"
  role="img"
  aria-labelledby="title desc"
>
  <title id="title">
    Standalone SVG file source view in the Terminal preview panel
  </title>
  <desc id="desc">
    Runweave Terminal with a right-side Preview panel opened to a standalone SVG
    file. Source is selected and readonly Monaco shows the SVG XML.
  </desc>
  <defs>
    <linearGradient id="page" x1="0" x2="1" y1="0" y2="1">
      <stop offset="0" stop-color="#111827" />
      <stop offset="1" stop-color="#020617" />
    </linearGradient>
    <linearGradient id="terminal" x1="0" x2="1" y1="0" y2="1">
      <stop offset="0" stop-color="#020617" />
      <stop offset="1" stop-color="#0b1120" />
    </linearGradient>
    <filter id="windowShadow" x="-10%" y="-10%" width="120%" height="120%">
      <feDropShadow
        dx="0"
        dy="28"
        stdDeviation="26"
        flood-color="#020617"
        flood-opacity="0.62"
      />
    </filter>
    <clipPath id="editorClip">
      <rect x="754" y="270" width="616" height="510" />
    </clipPath>
    <style>
      .ui {
        font-family:
          Inter,
          ui-sans-serif,
          system-ui,
          -apple-system,
          BlinkMacSystemFont,
          "Segoe UI",
          sans-serif;
      }
      .mono {
        font-family:
          "SFMono-Regular", "JetBrains Mono", Menlo, Consolas, monospace;
      }
      .muted {
        fill: #94a3b8;
      }
      .text {
        fill: #e2e8f0;
      }
    </style>
  </defs>

  <rect width="1440" height="900" fill="url(#page)" />
  <rect
    x="22"
    y="22"
    width="1396"
    height="856"
    rx="24"
    fill="#020617"
    stroke="#1e293b"
    filter="url(#windowShadow)"
  />
  <rect x="22" y="22" width="1396" height="96" rx="24" fill="#0f172a" />
  <rect x="22" y="94" width="1396" height="24" fill="#020617" />
  <circle cx="52" cy="54" r="7" fill="#ef4444" />
  <circle cx="76" cy="54" r="7" fill="#f59e0b" />
  <circle cx="100" cy="54" r="7" fill="#22c55e" />
  <rect x="130" y="38" width="134" height="32" rx="16" fill="#f8fafc" />
  <text
    x="154"
    y="59"
    class="ui"
    font-size="13"
    font-weight="700"
    fill="#020617"
  >
    Default Project
  </text>
  <rect
    x="276"
    y="38"
    width="112"
    height="32"
    rx="16"
    fill="#020617"
    stroke="#334155"
  />
  <text x="302" y="59" class="ui" font-size="13" fill="#cbd5e1">AI Worker</text>
  <rect x="1214" y="38" width="160" height="34" rx="17" fill="#2563eb" />
  <text
    x="1255"
    y="60"
    class="ui"
    font-size="13"
    font-weight="700"
    fill="#eff6ff"
  >
    New Project
  </text>

  <rect x="38" y="80" width="186" height="28" rx="14" fill="#f8fafc" />
  <text
    x="60"
    y="99"
    class="ui"
    font-size="12"
    font-weight="700"
    fill="#020617"
  >
    codex-agent
  </text>
  <rect
    x="235"
    y="80"
    width="176"
    height="28"
    rx="14"
    fill="#0f172a"
    stroke="#334155"
  />
  <text x="257" y="99" class="ui" font-size="12" fill="#cbd5e1">pnpm dev</text>
  <rect
    x="1114"
    y="80"
    width="148"
    height="28"
    rx="14"
    fill="#172554"
    stroke="#2563eb"
  />
  <text
    x="1136"
    y="99"
    class="ui"
    font-size="12"
    font-weight="700"
    fill="#bfdbfe"
  >
    Preview: File
  </text>
  <rect x="1272" y="80" width="120" height="28" rx="14" fill="#2563eb" />
  <text
    x="1294"
    y="99"
    class="ui"
    font-size="12"
    font-weight="700"
    fill="#eff6ff"
  >
    New Terminal
  </text>

  <rect
    x="38"
    y="136"
    width="644"
    height="710"
    fill="url(#terminal)"
    stroke="#1e293b"
  />
  <g class="mono" font-size="15">
    <text x="64" y="176" class="muted">$ codex</text>
    <text x="64" y="202" class="text">
      Switch the SVG preview to source when XML details matter.
    </text>
    <text x="64" y="250" class="muted">$</text>
    <rect
      x="84"
      y="237"
      width="10"
      height="20"
      rx="1"
      fill="#e2e8f0"
      opacity="0.86"
    />
  </g>

  <rect x="690" y="136" width="1" height="710" fill="#334155" />
  <rect x="701" y="404" width="8" height="118" rx="4" fill="#475569" />
  <rect
    x="722"
    y="136"
    width="680"
    height="710"
    fill="#020617"
    stroke="#1e293b"
  />

  <rect x="722" y="136" width="680" height="54" fill="#0f172a" />
  <text
    x="746"
    y="169"
    class="ui"
    font-size="14"
    font-weight="700"
    fill="#f8fafc"
  >
    Open file
  </text>
  <rect
    x="844"
    y="151"
    width="82"
    height="24"
    rx="12"
    fill="#172554"
    stroke="#2563eb"
  />
  <text x="864" y="168" class="ui" font-size="11" fill="#bfdbfe">
    Read only
  </text>
  <text x="1000" y="168" class="ui" font-size="10" fill="#64748b">
    Updated 4s ago
  </text>
  <rect
    x="1212"
    y="151"
    width="66"
    height="24"
    rx="12"
    fill="#020617"
    stroke="#334155"
  />
  <text x="1227" y="168" class="ui" font-size="10" fill="#cbd5e1">Refresh</text>
  <rect
    x="1286"
    y="151"
    width="72"
    height="24"
    rx="12"
    fill="#020617"
    stroke="#334155"
  />
  <text x="1300" y="168" class="ui" font-size="10" fill="#cbd5e1">
    Copy path
  </text>
  <rect
    x="1366"
    y="151"
    width="28"
    height="24"
    rx="12"
    fill="#020617"
    stroke="#334155"
  />
  <text x="1376" y="168" class="ui" font-size="11" fill="#cbd5e1">X</text>

  <rect
    x="722"
    y="190"
    width="680"
    height="48"
    fill="#020617"
    stroke="#1e293b"
  />
  <text x="746" y="219" class="mono" font-size="12" fill="#94a3b8">
    docs/architecture/assets/terminal-code-preview-open-file.svg
  </text>
  <rect
    x="1220"
    y="202"
    width="86"
    height="24"
    rx="8"
    fill="#020617"
    stroke="#334155"
  />
  <text x="1239" y="219" class="ui" font-size="11" fill="#cbd5e1">Preview</text>
  <rect x="1312" y="202" width="70" height="24" rx="8" fill="#2563eb" />
  <text
    x="1330"
    y="219"
    class="ui"
    font-size="11"
    font-weight="700"
    fill="#eff6ff"
  >
    Source
  </text>

  <rect
    x="754"
    y="270"
    width="616"
    height="510"
    fill="#0b1120"
    stroke="#1e293b"
  />
  <rect x="754" y="270" width="616" height="34" fill="#111827" />
  <text x="774" y="292" class="mono" font-size="12" fill="#e2e8f0">
    terminal-code-preview-open-file.svg
  </text>
  <g clip-path="url(#editorClip)" class="mono" font-size="12">
    <rect x="754" y="304" width="48" height="476" fill="#020617" />
    <text x="786" y="330" fill="#475569" text-anchor="end">1</text>
    <text x="820" y="330" fill="#94a3b8">
      &lt;svg xmlns="http://www.w3.org/2000/svg" width="1440" height="900"&gt;
    </text>
    <text x="786" y="356" fill="#475569" text-anchor="end">2</text>
    <text x="820" y="356" fill="#60a5fa">
      &lt;title&gt;Open file command palette&lt;/title&gt;
    </text>
    <text x="786" y="382" fill="#475569" text-anchor="end">3</text>
    <text x="820" y="382" fill="#e2e8f0">
      &lt;rect width="1440" height="900" fill="#020617"/&gt;
    </text>
    <text x="786" y="408" fill="#475569" text-anchor="end">4</text>
    <text x="820" y="408" fill="#e2e8f0">
      &lt;rect x="130" y="38" width="134" height="32" rx="16"/&gt;
    </text>
    <text x="786" y="434" fill="#475569" text-anchor="end">5</text>
    <text x="820" y="434" fill="#c084fc">
      &lt;text x="154" y="59"&gt;Default Project&lt;/text&gt;
    </text>
    <text x="786" y="460" fill="#475569" text-anchor="end">6</text>
    <text x="820" y="460" fill="#94a3b8">&lt;/svg&gt;</text>
  </g>
  <rect
    x="790"
    y="720"
    width="530"
    height="34"
    rx="8"
    fill="#020617"
    stroke="#334155"
  />
  <text x="812" y="742" class="ui" font-size="11" fill="#94a3b8">
    Source is readonly. Preview remains the default for standalone SVG files.
  </text>
</svg>
