<svg xmlns="http://www.w3.org/2000/svg" width="1440" height="900" viewBox="0 0 1440 900" role="img" aria-labelledby="title desc">
  <title id="title">Terminal workspace with Preview menu open</title>
  <desc id="desc">Runweave Terminal workspace with Preview placed in the session bar next to New Terminal. The Preview dropdown is open and the right preview panel remains closed.</desc>
  <defs>
    <linearGradient id="page" x1="0" x2="1" y1="0" y2="1">
      <stop offset="0" stop-color="#111827"/>
      <stop offset="1" stop-color="#020617"/>
    </linearGradient>
    <linearGradient id="terminal" x1="0" x2="1" y1="0" y2="1">
      <stop offset="0" stop-color="#020617"/>
      <stop offset="1" stop-color="#0b1120"/>
    </linearGradient>
    <filter id="windowShadow" x="-10%" y="-10%" width="120%" height="120%">
      <feDropShadow dx="0" dy="28" stdDeviation="26" flood-color="#020617" flood-opacity="0.62"/>
    </filter>
    <filter id="menuShadow" x="-20%" y="-20%" width="140%" height="140%">
      <feDropShadow dx="0" dy="20" stdDeviation="18" flood-color="#020617" flood-opacity="0.68"/>
    </filter>
    <style>
      .ui { font-family: Inter, ui-sans-serif, system-ui, -apple-system, BlinkMacSystemFont, "Segoe UI", sans-serif; }
      .mono { font-family: "SFMono-Regular", "JetBrains Mono", Menlo, Consolas, monospace; }
      .muted { fill: #94a3b8; }
      .faint { fill: #64748b; }
      .text { fill: #e2e8f0; }
      .bright { fill: #f8fafc; }
      .line { stroke: #1e293b; }
    </style>
  </defs>

  <rect width="1440" height="900" fill="url(#page)"/>
  <rect x="22" y="22" width="1396" height="856" rx="24" fill="#020617" stroke="#1e293b" filter="url(#windowShadow)"/>

  <rect x="22" y="22" width="1396" height="96" rx="24" fill="#0f172a"/>
  <rect x="22" y="94" width="1396" height="24" fill="#020617"/>
  <circle cx="52" cy="54" r="7" fill="#ef4444"/>
  <circle cx="76" cy="54" r="7" fill="#f59e0b"/>
  <circle cx="100" cy="54" r="7" fill="#22c55e"/>

  <rect x="130" y="38" width="134" height="32" rx="16" fill="#f8fafc"/>
  <text x="154" y="59" class="ui" font-size="13" font-weight="700" fill="#020617">Default Project</text>
  <rect x="276" y="38" width="112" height="32" rx="16" fill="#020617" stroke="#334155"/>
  <text x="302" y="59" class="ui" font-size="13" fill="#cbd5e1">AI Worker</text>
  <rect x="1214" y="38" width="160" height="34" rx="17" fill="#2563eb"/>
  <text x="1255" y="60" class="ui" font-size="13" font-weight="700" fill="#eff6ff">New Project</text>

  <rect x="38" y="80" width="186" height="28" rx="14" fill="#f8fafc"/>
  <text x="60" y="99" class="ui" font-size="12" font-weight="700" fill="#020617">codex-agent</text>
  <rect x="235" y="80" width="176" height="28" rx="14" fill="#0f172a" stroke="#334155"/>
  <text x="257" y="99" class="ui" font-size="12" fill="#cbd5e1">pnpm dev</text>
  <text x="954" y="99" class="ui" font-size="11" fill="#64748b">Project Alt+[ / Alt+]  Tab Alt+Shift+[ / Alt+Shift+]</text>
  <rect x="1194" y="80" width="96" height="28" rx="14" fill="#172554" stroke="#2563eb"/>
  <text x="1217" y="99" class="ui" font-size="12" font-weight="700" fill="#bfdbfe">Preview</text>
  <path d="M1269 91l4 4 4-4" fill="none" stroke="#bfdbfe" stroke-width="1.6" stroke-linecap="round" stroke-linejoin="round"/>
  <rect x="1300" y="80" width="92" height="28" rx="14" fill="#2563eb"/>
  <text x="1322" y="99" class="ui" font-size="12" font-weight="700" fill="#eff6ff">New Terminal</text>

  <rect x="38" y="136" width="1364" height="710" fill="url(#terminal)" stroke="#1e293b"/>
  <g class="mono" font-size="15">
    <text x="64" y="176" class="muted">$ pwd</text>
    <text x="64" y="202" class="text">/Users/bytedance/Desktop/vscode/browser-hub/browser-viewer</text>
    <text x="64" y="246" class="muted">$ codex</text>
    <text x="64" y="272" class="text">Design a lightweight markdown and diff preview beside Terminal.</text>
    <text x="64" y="298" class="text">Keep it read-only. Do not introduce a file tree.</text>
    <text x="64" y="342" class="muted">$ git status --short</text>
    <text x="64" y="368" fill="#fbbf24"> M docs/architecture/terminal-code-preview.md</text>
    <text x="64" y="394" fill="#fbbf24"> M docs/architecture/assets/terminal-code-preview-closed.svg</text>
    <text x="64" y="438" class="muted">$</text>
    <rect x="84" y="425" width="10" height="20" rx="1" fill="#e2e8f0" opacity="0.86"/>
  </g>

  <rect x="1168" y="116" width="246" height="170" rx="14" fill="#020617" stroke="#334155" filter="url(#menuShadow)"/>
  <rect x="1168" y="116" width="246" height="46" rx="14" fill="#0f172a"/>
  <text x="1190" y="145" class="ui" font-size="13" font-weight="700" fill="#f8fafc">Preview</text>
  <text x="1342" y="145" class="ui" font-size="11" fill="#64748b">read-only</text>

  <rect x="1184" y="176" width="214" height="36" rx="8" fill="#0b1120" stroke="#1e293b"/>
  <text x="1204" y="199" class="ui" font-size="12" fill="#e2e8f0">Open file...</text>
  <text x="1342" y="199" class="ui" font-size="11" fill="#64748b">path</text>

  <rect x="1184" y="220" width="214" height="36" rx="8" fill="#172554" stroke="#2563eb"/>
  <text x="1204" y="243" class="ui" font-size="12" font-weight="700" fill="#dbeafe">Changes</text>
  <text x="1342" y="243" class="ui" font-size="11" fill="#86efac">git</text>

  <line x1="1184" y1="268" x2="1398" y2="268" stroke="#1e293b"/>
  <text x="1204" y="293" class="ui" font-size="12" fill="#64748b">Close preview</text>

  <rect x="946" y="756" width="388" height="56" rx="12" fill="#020617" stroke="#334155"/>
  <text x="970" y="780" class="ui" font-size="12" font-weight="700" fill="#f8fafc">Closed by default</text>
  <text x="970" y="800" class="ui" font-size="11" fill="#94a3b8">Preview opens only after choosing a task from the session bar menu.</text>
</svg>
