<svg xmlns="http://www.w3.org/2000/svg" width="1440" height="900" viewBox="0 0 1440 900" role="img" aria-labelledby="title desc">
  <title id="title">Open file command palette in the Terminal preview panel</title>
  <desc id="desc">Runweave Terminal with a right-side Preview panel showing a Spotlight-style file search command palette and a read-only Monaco preview.</desc>
  <defs>
    <linearGradient id="page" x1="0" x2="1" y1="0" y2="1">
      <stop offset="0" stop-color="#111827"/>
      <stop offset="1" stop-color="#020617"/>
    </linearGradient>
    <linearGradient id="terminal" x1="0" x2="1" y1="0" y2="1">
      <stop offset="0" stop-color="#020617"/>
      <stop offset="1" stop-color="#0b1120"/>
    </linearGradient>
    <filter id="windowShadow" x="-10%" y="-10%" width="120%" height="120%">
      <feDropShadow dx="0" dy="28" stdDeviation="26" flood-color="#020617" flood-opacity="0.62"/>
    </filter>
    <clipPath id="editorClip">
      <rect x="1018" y="440" width="360" height="354"/>
    </clipPath>
    <style>
      .ui { font-family: Inter, ui-sans-serif, system-ui, -apple-system, BlinkMacSystemFont, "Segoe UI", sans-serif; }
      .mono { font-family: "SFMono-Regular", "JetBrains Mono", Menlo, Consolas, monospace; }
      .muted { fill: #94a3b8; }
      .faint { fill: #64748b; }
      .text { fill: #e2e8f0; }
    </style>
  </defs>

  <rect width="1440" height="900" fill="url(#page)"/>
  <rect x="22" y="22" width="1396" height="856" rx="24" fill="#020617" stroke="#1e293b" filter="url(#windowShadow)"/>
  <rect x="22" y="22" width="1396" height="96" rx="24" fill="#0f172a"/>
  <rect x="22" y="94" width="1396" height="24" fill="#020617"/>
  <circle cx="52" cy="54" r="7" fill="#ef4444"/>
  <circle cx="76" cy="54" r="7" fill="#f59e0b"/>
  <circle cx="100" cy="54" r="7" fill="#22c55e"/>
  <rect x="130" y="38" width="134" height="32" rx="16" fill="#f8fafc"/>
  <text x="154" y="59" class="ui" font-size="13" font-weight="700" fill="#020617">Default Project</text>
  <rect x="276" y="38" width="112" height="32" rx="16" fill="#020617" stroke="#334155"/>
  <text x="302" y="59" class="ui" font-size="13" fill="#cbd5e1">AI Worker</text>
  <rect x="1214" y="38" width="160" height="34" rx="17" fill="#2563eb"/>
  <text x="1255" y="60" class="ui" font-size="13" font-weight="700" fill="#eff6ff">New Project</text>

  <rect x="38" y="80" width="186" height="28" rx="14" fill="#f8fafc"/>
  <text x="60" y="99" class="ui" font-size="12" font-weight="700" fill="#020617">codex-agent</text>
  <rect x="235" y="80" width="176" height="28" rx="14" fill="#0f172a" stroke="#334155"/>
  <text x="257" y="99" class="ui" font-size="12" fill="#cbd5e1">pnpm dev</text>
  <text x="856" y="99" class="ui" font-size="11" fill="#64748b">Project Alt+[ / Alt+]  Tab Alt+Shift+[ / Alt+Shift+]</text>
  <rect x="1114" y="80" width="148" height="28" rx="14" fill="#172554" stroke="#2563eb"/>
  <text x="1136" y="99" class="ui" font-size="12" font-weight="700" fill="#bfdbfe">Preview: File</text>
  <rect x="1272" y="80" width="120" height="28" rx="14" fill="#2563eb"/>
  <text x="1294" y="99" class="ui" font-size="12" font-weight="700" fill="#eff6ff">New Terminal</text>

  <rect x="38" y="136" width="804" height="710" fill="url(#terminal)" stroke="#1e293b"/>
  <g class="mono" font-size="15">
    <text x="64" y="176" class="muted">$ pwd</text>
    <text x="64" y="202" class="text">/Users/bytedance/Desktop/vscode/browser-hub/browser-viewer/frontend</text>
    <text x="64" y="250" class="muted">$ git rev-parse --show-toplevel</text>
    <text x="64" y="276" fill="#38bdf8">/Users/bytedance/Desktop/vscode/browser-hub/browser-viewer</text>
    <text x="64" y="324" class="muted">$ codex</text>
    <text x="64" y="350" class="text">Use Open file like Spotlight: fuzzy search filenames, pick one, preview.</text>
    <text x="64" y="402" class="muted">$</text>
    <rect x="84" y="389" width="10" height="20" rx="1" fill="#e2e8f0" opacity="0.86"/>
  </g>

  <rect x="850" y="136" width="1" height="710" fill="#334155"/>
  <rect x="861" y="404" width="8" height="118" rx="4" fill="#475569"/>
  <rect x="882" y="136" width="520" height="710" fill="#020617" stroke="#1e293b"/>

  <rect x="882" y="136" width="520" height="54" fill="#0f172a"/>
  <text x="906" y="169" class="ui" font-size="14" font-weight="700" fill="#f8fafc">Open file</text>
  <rect x="1004" y="151" width="82" height="24" rx="12" fill="#172554" stroke="#2563eb"/>
  <text x="1024" y="168" class="ui" font-size="11" fill="#bfdbfe">Read only</text>
  <text x="1128" y="168" class="ui" font-size="10" fill="#64748b">Updated 4s ago</text>
  <rect x="1212" y="151" width="66" height="24" rx="12" fill="#020617" stroke="#334155"/>
  <text x="1227" y="168" class="ui" font-size="10" fill="#cbd5e1">Refresh</text>
  <rect x="1286" y="151" width="72" height="24" rx="12" fill="#020617" stroke="#334155"/>
  <text x="1300" y="168" class="ui" font-size="10" fill="#cbd5e1">Copy path</text>
  <rect x="1366" y="151" width="28" height="24" rx="12" fill="#020617" stroke="#334155"/>
  <text x="1376" y="168" class="ui" font-size="11" fill="#cbd5e1">X</text>

  <rect x="906" y="204" width="472" height="46" rx="8" fill="#0b1120" stroke="#334155"/>
  <text x="926" y="233" class="mono" font-size="15" fill="#f8fafc">term work</text>
  <text x="1278" y="233" class="ui" font-size="11" fill="#64748b">Open file</text>

  <rect x="906" y="258" width="472" height="166" rx="8" fill="#050816" stroke="#1e293b"/>
  <rect x="914" y="266" width="456" height="30" rx="6" fill="#172554" stroke="#2563eb"/>
  <text x="930" y="286" class="mono" font-size="12" fill="#bfdbfe">terminal-workspace.tsx</text>
  <text x="1102" y="286" class="mono" font-size="10" fill="#93c5fd">frontend/src/components/terminal</text>
  <rect x="1330" y="273" width="24" height="14" rx="7" fill="#052e16"/>
  <text x="1339" y="284" class="ui" font-size="8" fill="#bbf7d0">M</text>

  <rect x="914" y="300" width="456" height="28" rx="6" fill="#0b1120"/>
  <text x="930" y="319" class="mono" font-size="12" fill="#e2e8f0">recent-selection.ts</text>
  <text x="1102" y="319" class="mono" font-size="10" fill="#94a3b8">frontend/src/features/terminal</text>

  <rect x="914" y="332" width="456" height="28" rx="6" fill="#0b1120"/>
  <text x="930" y="351" class="mono" font-size="12" fill="#e2e8f0">terminal.ts</text>
  <text x="1102" y="351" class="mono" font-size="10" fill="#94a3b8">frontend/src/services</text>

  <rect x="914" y="364" width="456" height="28" rx="6" fill="#0b1120"/>
  <text x="930" y="383" class="mono" font-size="12" fill="#e2e8f0">terminal-surface.tsx</text>
  <text x="1102" y="383" class="mono" font-size="10" fill="#94a3b8">frontend/src/components/terminal</text>

  <rect x="914" y="396" width="456" height="20" rx="5" fill="#020617"/>
  <text x="930" y="410" class="ui" font-size="10" fill="#64748b">Enter opens selected file. Absolute paths only open when typed fully.</text>

  <rect x="906" y="440" width="472" height="354" fill="#0b1120" stroke="#1e293b"/>
  <rect x="906" y="440" width="472" height="34" fill="#111827"/>
  <text x="926" y="462" class="mono" font-size="12" fill="#e2e8f0">frontend/src/components/terminal/terminal-workspace.tsx</text>
  <g clip-path="url(#editorClip)" class="mono" font-size="12">
    <rect x="906" y="474" width="48" height="320" fill="#020617"/>
    <text x="936" y="500" fill="#475569" text-anchor="end">1</text>
    <text x="936" y="526" fill="#475569" text-anchor="end">2</text>
    <text x="936" y="552" fill="#475569" text-anchor="end">3</text>
    <text x="936" y="578" fill="#475569" text-anchor="end">4</text>
    <text x="970" y="500" fill="#c084fc">export</text>
    <text x="1020" y="500" fill="#e2e8f0"> function TerminalWorkspace(...) {</text>
    <text x="970" y="526" fill="#94a3b8">  // Preview state belongs to workspace chrome.</text>
    <text x="970" y="552" fill="#e2e8f0">  const [previewOpen, setPreviewOpen] = useState(false);</text>
    <text x="970" y="578" fill="#e2e8f0">}</text>
  </g>

  <rect x="906" y="806" width="472" height="30" rx="10" fill="#020617" stroke="#334155"/>
  <text x="928" y="825" class="ui" font-size="11" fill="#94a3b8">Enter opens highlighted result. No result: open current input as a path.</text>
</svg>
