<svg
  xmlns="http://www.w3.org/2000/svg"
  width="1440"
  height="900"
  viewBox="0 0 1440 900"
  role="img"
  aria-labelledby="title desc"
>
  <title id="title">Markdown source view in the Terminal preview panel</title>
  <desc id="desc">
    Runweave Terminal with a right-side Preview panel showing the same Markdown
    file in readonly Monaco source view, with Source, Split, and Preview
    available as view switches.
  </desc>
  <defs>
    <linearGradient id="page" x1="0" x2="1" y1="0" y2="1">
      <stop offset="0" stop-color="#111827" />
      <stop offset="1" stop-color="#020617" />
    </linearGradient>
    <linearGradient id="terminal" x1="0" x2="1" y1="0" y2="1">
      <stop offset="0" stop-color="#020617" />
      <stop offset="1" stop-color="#0b1120" />
    </linearGradient>
    <filter id="windowShadow" x="-10%" y="-10%" width="120%" height="120%">
      <feDropShadow
        dx="0"
        dy="28"
        stdDeviation="26"
        flood-color="#020617"
        flood-opacity="0.62"
      />
    </filter>
    <clipPath id="editorClip">
      <rect x="906" y="260" width="472" height="548" />
    </clipPath>
    <style>
      .ui {
        font-family:
          Inter,
          ui-sans-serif,
          system-ui,
          -apple-system,
          BlinkMacSystemFont,
          "Segoe UI",
          sans-serif;
      }
      .mono {
        font-family:
          "SFMono-Regular", "JetBrains Mono", Menlo, Consolas, monospace;
      }
      .muted {
        fill: #94a3b8;
      }
      .text {
        fill: #e2e8f0;
      }
    </style>
  </defs>

  <rect width="1440" height="900" fill="url(#page)" />
  <rect
    x="22"
    y="22"
    width="1396"
    height="856"
    rx="24"
    fill="#020617"
    stroke="#1e293b"
    filter="url(#windowShadow)"
  />
  <rect x="22" y="22" width="1396" height="96" rx="24" fill="#0f172a" />
  <rect x="22" y="94" width="1396" height="24" fill="#020617" />
  <circle cx="52" cy="54" r="7" fill="#ef4444" />
  <circle cx="76" cy="54" r="7" fill="#f59e0b" />
  <circle cx="100" cy="54" r="7" fill="#22c55e" />
  <rect x="130" y="38" width="134" height="32" rx="16" fill="#f8fafc" />
  <text
    x="154"
    y="59"
    class="ui"
    font-size="13"
    font-weight="700"
    fill="#020617"
  >
    Default Project
  </text>
  <rect
    x="276"
    y="38"
    width="112"
    height="32"
    rx="16"
    fill="#020617"
    stroke="#334155"
  />
  <text x="302" y="59" class="ui" font-size="13" fill="#cbd5e1">AI Worker</text>
  <rect x="1214" y="38" width="160" height="34" rx="17" fill="#2563eb" />
  <text
    x="1255"
    y="60"
    class="ui"
    font-size="13"
    font-weight="700"
    fill="#eff6ff"
  >
    New Project
  </text>

  <rect x="38" y="80" width="186" height="28" rx="14" fill="#f8fafc" />
  <text
    x="60"
    y="99"
    class="ui"
    font-size="12"
    font-weight="700"
    fill="#020617"
  >
    codex-agent
  </text>
  <rect
    x="235"
    y="80"
    width="176"
    height="28"
    rx="14"
    fill="#0f172a"
    stroke="#334155"
  />
  <text x="257" y="99" class="ui" font-size="12" fill="#cbd5e1">pnpm dev</text>
  <text x="856" y="99" class="ui" font-size="11" fill="#64748b">
    Project Alt+[ / Alt+] Tab Alt+Shift+[ / Alt+Shift+]
  </text>
  <rect
    x="1114"
    y="80"
    width="148"
    height="28"
    rx="14"
    fill="#172554"
    stroke="#2563eb"
  />
  <text
    x="1136"
    y="99"
    class="ui"
    font-size="12"
    font-weight="700"
    fill="#bfdbfe"
  >
    Preview: File
  </text>
  <rect x="1272" y="80" width="120" height="28" rx="14" fill="#2563eb" />
  <text
    x="1294"
    y="99"
    class="ui"
    font-size="12"
    font-weight="700"
    fill="#eff6ff"
  >
    New Terminal
  </text>

  <rect
    x="38"
    y="136"
    width="804"
    height="710"
    fill="url(#terminal)"
    stroke="#1e293b"
  />
  <g class="mono" font-size="15">
    <text x="64" y="176" class="muted">$ codex</text>
    <text x="64" y="202" class="text">
      Switch Markdown to source without opening a split view.
    </text>
    <text x="64" y="250" class="muted">$</text>
    <rect
      x="84"
      y="237"
      width="10"
      height="20"
      rx="1"
      fill="#e2e8f0"
      opacity="0.86"
    />
  </g>

  <rect x="850" y="136" width="1" height="710" fill="#334155" />
  <rect x="861" y="404" width="8" height="118" rx="4" fill="#475569" />
  <rect
    x="882"
    y="136"
    width="520"
    height="710"
    fill="#020617"
    stroke="#1e293b"
  />

  <rect x="882" y="136" width="520" height="54" fill="#0f172a" />
  <text
    x="906"
    y="169"
    class="ui"
    font-size="14"
    font-weight="700"
    fill="#f8fafc"
  >
    Open file
  </text>
  <rect
    x="1004"
    y="151"
    width="82"
    height="24"
    rx="12"
    fill="#172554"
    stroke="#2563eb"
  />
  <text x="1024" y="168" class="ui" font-size="11" fill="#bfdbfe">
    Read only
  </text>
  <text x="1128" y="168" class="ui" font-size="10" fill="#64748b">
    Updated 4s ago
  </text>
  <rect
    x="1212"
    y="151"
    width="66"
    height="24"
    rx="12"
    fill="#020617"
    stroke="#334155"
  />
  <text x="1227" y="168" class="ui" font-size="10" fill="#cbd5e1">Refresh</text>
  <rect
    x="1286"
    y="151"
    width="72"
    height="24"
    rx="12"
    fill="#020617"
    stroke="#334155"
  />
  <text x="1300" y="168" class="ui" font-size="10" fill="#cbd5e1">
    Copy path
  </text>
  <rect
    x="1366"
    y="151"
    width="28"
    height="24"
    rx="12"
    fill="#020617"
    stroke="#334155"
  />
  <text x="1376" y="168" class="ui" font-size="11" fill="#cbd5e1">X</text>

  <rect
    x="882"
    y="190"
    width="520"
    height="48"
    fill="#020617"
    stroke="#1e293b"
  />
  <text x="906" y="219" class="mono" font-size="12" fill="#94a3b8">
    docs/architecture/terminal-code-preview.md
  </text>
  <rect x="1162" y="202" width="62" height="24" rx="8" fill="#2563eb" />
  <text
    x="1176"
    y="219"
    class="ui"
    font-size="11"
    font-weight="700"
    fill="#eff6ff"
  >
    Source
  </text>
  <rect
    x="1228"
    y="202"
    width="56"
    height="24"
    rx="8"
    fill="#020617"
    stroke="#334155"
  />
  <text x="1244" y="219" class="ui" font-size="11" fill="#cbd5e1">Split</text>
  <rect
    x="1288"
    y="202"
    width="86"
    height="24"
    rx="8"
    fill="#020617"
    stroke="#334155"
  />
  <text x="1307" y="219" class="ui" font-size="11" fill="#cbd5e1">Preview</text>

  <rect
    x="906"
    y="260"
    width="472"
    height="548"
    fill="#0b1120"
    stroke="#1e293b"
  />
  <rect x="906" y="260" width="472" height="34" fill="#111827" />
  <text x="926" y="282" class="mono" font-size="12" fill="#e2e8f0">
    terminal-code-preview.md
  </text>
  <g clip-path="url(#editorClip)" class="mono" font-size="12">
    <rect x="906" y="294" width="48" height="514" fill="#020617" />
    <text x="936" y="322" fill="#475569" text-anchor="end">1</text>
    <text x="936" y="348" fill="#475569" text-anchor="end">2</text>
    <text x="936" y="374" fill="#475569" text-anchor="end">3</text>
    <text x="936" y="400" fill="#475569" text-anchor="end">4</text>
    <text x="936" y="426" fill="#475569" text-anchor="end">5</text>
    <text x="936" y="452" fill="#475569" text-anchor="end">6</text>
    <text x="936" y="478" fill="#475569" text-anchor="end">7</text>
    <text x="936" y="504" fill="#475569" text-anchor="end">8</text>
    <text x="970" y="322" fill="#60a5fa"># Terminal code preview</text>
    <text x="970" y="348" fill="#94a3b8"></text>
    <text x="970" y="374" fill="#e2e8f0">
      Runweave Terminal uses Preview as a temporary reading space.
    </text>
    <text x="970" y="400" fill="#94a3b8"></text>
    <text x="970" y="426" fill="#60a5fa">## Goals</text>
    <text x="970" y="452" fill="#e2e8f0">
      - [x] Read plans without leaving Terminal
    </text>
    <text x="970" y="478" fill="#e2e8f0">
      - [x] Keep code and docs read-only
    </text>
    <text x="970" y="504" fill="#e2e8f0">
      - [x] Use one panel area, no split preview
    </text>
    <text x="970" y="556" fill="#60a5fa">## Interaction</text>
    <text x="970" y="582" fill="#e2e8f0">
      Source only. Split and Preview remain one click away.
    </text>
    <text x="970" y="634" fill="#e2e8f0">
      See also: [testing layers](../testing/layers.md).
    </text>
  </g>

  <rect
    x="934"
    y="742"
    width="390"
    height="38"
    rx="8"
    fill="#020617"
    stroke="#334155"
  />
  <text x="956" y="766" class="ui" font-size="11" fill="#94a3b8">
    Same selected file. Same panel area. Monaco remains read-only.
  </text>
</svg>
